<?xml version="1.0" encoding="UTF-8" standalone="no"?>
<svg
   viewBox="0 0 228.66 39.08"
   version="1.1"
   id="svg32"
   sodipodi:docname="navbar-logo-tzr-bdt.svg"
   inkscape:version="1.2.2 (732a01da63, 2022-12-09)"
   xmlns:inkscape="http://www.inkscape.org/namespaces/inkscape"
   xmlns:sodipodi="http://sodipodi.sourceforge.net/DTD/sodipodi-0.dtd"
   xmlns="http://www.w3.org/2000/svg"
   xmlns:svg="http://www.w3.org/2000/svg">
  <defs
     id="defs36" />
  <sodipodi:namedview
     id="namedview34"
     pagecolor="#ffffff"
     bordercolor="#000000"
     borderopacity="0.25"
     inkscape:showpageshadow="2"
     inkscape:pageopacity="0.0"
     inkscape:pagecheckerboard="0"
     inkscape:deskcolor="#d1d1d1"
     showgrid="false"
     inkscape:zoom="6.1838537"
     inkscape:cx="117.72594"
     inkscape:cy="19.647942"
     inkscape:window-width="1920"
     inkscape:window-height="991"
     inkscape:window-x="-9"
     inkscape:window-y="-9"
     inkscape:window-maximized="1"
     inkscape:current-layer="text353" />
  <style
     id="style2">.cls-1{fill:#fed136;}</style>
  <g
     aria-label="Banco del tiempo"
     id="text353"
     style="font-size:29.3333px;font-family:Arimo;-inkscape-font-specification:Arimo;letter-spacing:0.66px;word-spacing:-2.69px;white-space:pre;inline-size:247.297;display:inline;fill:#fed136">
    <path
       d="m 16.238912,16.62999 q 0,2.692705 -1.962238,4.19661 -1.962237,1.489581 -5.4570247,1.489581 H 0.62695036 V 2.1352148 H 7.9602753 q 7.1041587,0 7.1041587,4.8984319 0,1.7903625 -1.002603,3.0078093 -1.002603,1.217446 -2.835934,1.63281 2.406247,0.286458 3.709631,1.618488 1.303384,1.317707 1.303384,3.337236 z M 12.314437,7.3630734 q 0,-1.6328107 -1.117186,-2.3346328 Q 10.080065,4.3266185 7.9602753,4.3266185 h -4.597651 v 6.3880135 h 4.597651 q 2.1914037,0 3.2656217,-0.8164053 1.08854,-0.8307282 1.08854,-2.5351533 z m 1.160155,9.0520726 q 0,-3.566402 -5.0130152,-3.566402 H 3.3626243 v 7.276033 h 5.313796 q 2.5065077,0 3.6523397,-0.930988 1.145832,-0.930989 1.145832,-2.778643 z"
       id="path276" />
    <path
       d="m 24.375466,22.602639 q -2.334633,0 -3.50911,-1.231769 -1.174478,-1.23177 -1.174478,-3.380205 0,-2.406247 1.575519,-3.695308 1.589842,-1.289061 5.113275,-1.374998 l 3.480465,-0.05729 v -0.845051 q 0,-1.890623 -0.802082,-2.7070282 -0.802083,-0.8164053 -2.520831,-0.8164053 -1.733071,0 -2.52083,0.5872389 -0.78776,0.5872389 -0.945312,1.8762996 l -2.692705,-0.243489 q 0.658853,-4.1822869 6.216139,-4.1822869 2.921871,0 4.39713,1.3463527 1.475259,1.3320297 1.475259,3.8671832 v 6.674471 q 0,1.145832 0.300781,1.733071 0.300781,0.572916 1.145832,0.572916 0.372395,0 0.845051,-0.10026 v 1.604165 q -0.973957,0.229166 -1.990883,0.229166 -1.43229,0 -2.091144,-0.744791 -0.64453,-0.759113 -0.730468,-2.363278 h -0.08594 q -0.98828,1.776039 -2.305987,2.52083 -1.303384,0.730468 -3.179684,0.730468 z m 0.587239,-1.933591 q 1.417967,0 2.520831,-0.644531 1.102863,-0.64453 1.73307,-1.761717 0.644531,-1.131509 0.644531,-2.320309 v -1.274739 l -2.821611,0.05729 q -1.819009,0.02865 -2.76432,0.372395 -0.930989,0.34375 -1.43229,1.059895 -0.501302,0.716145 -0.501302,1.8763 0,1.260415 0.673177,1.947914 0.687499,0.6875 1.947914,0.6875 z"
       id="path278" />
    <path
       d="m 47.235964,22.316181 v -9.825509 q 0,-1.532551 -0.300781,-2.377602 -0.300781,-0.8450509 -0.959635,-1.2174463 -0.658853,-0.3723954 -1.933591,-0.3723954 -1.861977,0 -2.936195,1.2747381 -1.074217,1.2747386 -1.074217,3.5377566 v 8.980458 H 37.453423 V 10.127393 q 0,-2.707028 -0.08594,-3.3085898 h 2.434893 q 0.01432,0.071615 0.02865,0.3867183 0.01432,0.3151038 0.02865,0.7304679 0.02865,0.4010412 0.05729,1.5325503 h 0.04297 q 0.88802,-1.6041648 2.048175,-2.2630182 1.174478,-0.6731764 2.907549,-0.6731764 2.549476,0 3.723954,1.2747382 1.188801,1.2604152 1.188801,4.1822867 v 10.326811 z"
       id="path280" />
    <path
       d="m 56.33215,14.495878 q 0,3.093746 0.973957,4.583328 0.973957,1.489581 2.936195,1.489581 1.374998,0 2.291664,-0.74479 0.930988,-0.744791 1.145832,-2.291664 l 2.606768,0.171874 q -0.300781,2.234373 -1.904946,3.566402 -1.604165,1.33203 -4.067704,1.33203 -3.251298,0 -4.970046,-2.048175 -1.704425,-2.062497 -1.704425,-6.001295 0,-3.910151 1.718748,-5.9583262 1.718748,-2.0624977 4.927078,-2.0624977 2.377601,0 3.938797,1.2317695 1.575519,1.2317694 1.97656,3.3945274 l -2.649736,0.200521 q -0.200521,-1.289061 -1.016926,-2.0481752 -0.816405,-0.7591137 -2.32031,-0.7591137 -2.048175,0 -2.96484,1.3606755 -0.916666,1.3606754 -0.916666,4.5833284 z"
       id="path282" />
    <path
       d="m 82.802015,14.553169 q 0,4.067704 -1.790362,6.058587 -1.790363,1.990883 -5.199213,1.990883 -3.394528,0 -5.127598,-2.062497 -1.733071,-2.076821 -1.733071,-5.986973 0,-8.0208239 6.946606,-8.0208239 3.552079,0 5.227859,1.9622374 1.675779,1.9479145 1.675779,6.0585865 z m -2.707028,0 q 0,-3.208329 -0.959634,-4.6549423 -0.945312,-1.4609358 -3.194007,-1.4609358 -2.263018,0 -3.279944,1.4895816 -1.002603,1.4752585 -1.002603,4.6262965 0,3.065101 0.98828,4.611974 1.002603,1.53255 3.136715,1.53255 2.32031,0 3.30859,-1.489581 1.002603,-1.489582 1.002603,-4.654943 z"
       id="path284" />
    <path
       d="m 102.57262,19.823997 q -0.71615,1.489581 -1.90495,2.134112 -1.174478,0.64453 -2.921872,0.64453 -2.936194,0 -4.325515,-1.97656 -1.374999,-1.97656 -1.374999,-5.986972 0,-8.1067619 5.700514,-8.1067619 1.761717,0 2.936192,0.6445306 1.17448,0.6445305 1.89063,2.0481747 h 0.0286 l -0.0286,-1.7330709 V 1.0609973 h 2.57812 V 19.122174 q 0,2.420571 0.0859,3.194007 h -2.46354 q -0.043,-0.229166 -0.10026,-1.059894 -0.043,-0.830729 -0.043,-1.43229 z m -7.820308,-5.270828 q 0,3.251299 0.859374,4.654943 0.859374,1.403644 2.792966,1.403644 2.191408,0 3.179688,-1.518227 0.98828,-1.518228 0.98828,-4.712235 0,-3.079423 -0.98828,-4.5117131 -0.98828,-1.43229 -3.151042,-1.43229 -1.947915,0 -2.821612,1.4466129 -0.859374,1.4322902 -0.859374,4.6692652 z"
       id="path286" />
    <path
       d="m 111.74042,15.111762 q 0,2.66406 1.10286,4.110673 1.10287,1.446613 3.22266,1.446613 1.67578,0 2.67838,-0.673177 1.01692,-0.673176 1.375,-1.704425 l 2.26302,0.644531 q -1.38933,3.666662 -6.3164,3.666662 -3.4375,0 -5.24219,-2.048175 -1.79036,-2.048174 -1.79036,-6.087232 0,-3.838537 1.79036,-5.8867121 1.80469,-2.0481748 5.14193,-2.0481748 6.83202,0 6.83202,8.2356679 v 0.343749 z m 8.39322,-1.97656 Q 119.9188,10.685986 118.88755,9.5688 117.8563,8.4372909 115.92271,8.4372909 q -1.8763,0 -2.97917,1.2604152 -1.08854,1.2460919 -1.17447,3.4374959 z"
       id="path288" />
    <path
       d="M 126.73765,22.316181 V 1.0609973 h 2.57812 V 22.316181 Z"
       id="path290" />
    <path
       d="m 145.99263,22.201598 q -1.27474,0.34375 -2.60677,0.34375 -3.09375,0 -3.09375,-3.509111 V 8.6951031 h -1.79036 V 6.8188032 h 1.89062 l 0.75912,-3.4661419 h 1.71874 v 3.4661419 h 2.86458 v 1.8762999 h -2.86458 v 9.7825409 q 0,1.117186 0.35808,1.575519 0.37239,0.44401 1.27473,0.44401 0.51563,0 1.48959,-0.200521 z"
       id="path292" />
    <path
       d="M 148.8297,3.5245361 V 1.0609973 h 2.57812 v 2.4635388 z m 0,18.7916449 V 6.8188032 h 2.57812 V 22.316181 Z"
       id="path294" />
    <path
       d="m 157.99751,15.111762 q 0,2.66406 1.10286,4.110673 1.10286,1.446613 3.22265,1.446613 1.67578,0 2.67839,-0.673177 1.01692,-0.673176 1.37499,-1.704425 l 2.26302,0.644531 q -1.38932,3.666662 -6.3164,3.666662 -3.43749,0 -5.24218,-2.048175 -1.79036,-2.048174 -1.79036,-6.087232 0,-3.838537 1.79036,-5.8867121 1.80469,-2.0481748 5.14192,-2.0481748 6.83203,0 6.83203,8.2356679 v 0.343749 z m 8.39322,-1.97656 q -0.21485,-2.449216 -1.24609,-3.566402 -1.03125,-1.1315091 -2.96484,-1.1315091 -1.8763,0 -2.97917,1.2604152 -1.08854,1.2460919 -1.17448,3.4374959 z"
       id="path296" />
    <path
       d="m 182.01816,22.316181 v -9.825509 q 0,-2.248696 -0.61588,-3.1080697 -0.61589,-0.859374 -2.22005,-0.859374 -1.64714,0 -2.60677,1.2604152 -0.95964,1.2604155 -0.95964,3.5520795 v 8.980458 h -2.56379 V 10.127393 q 0,-2.707028 -0.0859,-3.3085898 h 2.43489 q 0.0143,0.071615 0.0286,0.3867183 0.0143,0.3151038 0.0286,0.7304679 0.0286,0.4010412 0.0573,1.5325503 h 0.043 q 0.83073,-1.6471335 1.90495,-2.291664 1.07422,-0.6445306 2.62109,-0.6445306 1.76172,0 2.77864,0.7018222 1.03125,0.7018221 1.43229,2.2343724 h 0.043 q 0.80208,-1.5611961 1.93359,-2.2486953 1.14583,-0.6874993 2.76432,-0.6874993 2.34896,0 3.40885,1.2747382 1.07422,1.2747381 1.07422,4.1822867 v 10.326811 h -2.54948 v -9.825509 q 0,-2.248696 -0.61588,-3.1080697 -0.61589,-0.859374 -2.22005,-0.859374 -1.6901,0 -2.63541,1.2604152 -0.93099,1.2460925 -0.93099,3.5520795 v 8.980458 z"
       id="path298" />
    <path
       d="m 211.19505,14.495878 q 0,8.106761 -5.70051,8.106761 -3.58073,0 -4.8125,-2.692705 h -0.0716 q 0.0573,0.114583 0.0573,2.434893 v 6.058587 H 198.0896 V 9.9841641 q 0,-2.3919243 -0.0859,-3.1653609 h 2.49218 q 0.0143,0.057292 0.043,0.4153641 0.0286,0.3437496 0.0573,1.0742175 0.043,0.7304679 0.043,1.002603 h 0.0573 q 0.68749,-1.43229 1.819,-2.0911434 1.13151,-0.6731764 2.97917,-0.6731764 2.86458,0 4.28254,1.9192687 1.41797,1.9192683 1.41797,6.0299413 z m -2.70703,0.05729 q 0,-3.236975 -0.87369,-4.6262965 -0.8737,-1.3893213 -2.77865,-1.3893213 -1.53255,0 -2.40624,0.6445305 -0.85938,0.6445305 -1.31771,2.0195293 -0.44401,1.360675 -0.44401,3.552079 0,3.050778 0.97396,4.497391 0.97395,1.446612 3.16536,1.446612 1.91927,0 2.79296,-1.403644 0.88802,-1.417967 0.88802,-4.74088 z"
       id="path300" />
    <path
       d="m 228.16884,14.553169 q 0,4.067704 -1.79037,6.058587 -1.79036,1.990883 -5.19921,1.990883 -3.39453,0 -5.1276,-2.062497 -1.73307,-2.076821 -1.73307,-5.986973 0,-8.0208239 6.94661,-8.0208239 3.55208,0 5.22786,1.9622374 1.67578,1.9479145 1.67578,6.0585865 z m -2.70703,0 q 0,-3.208329 -0.95964,-4.6549423 -0.94531,-1.4609358 -3.194,-1.4609358 -2.26302,0 -3.27995,1.4895816 -1.0026,1.4752585 -1.0026,4.6262965 0,3.065101 0.98828,4.611974 1.0026,1.53255 3.13672,1.53255 2.32031,0 3.30859,-1.489581 1.0026,-1.489582 1.0026,-4.654943 z"
       id="path302" />
  </g>
</svg>
